
            <svg xmlns="http://www.w3.org/2000/svg">
                <filter id="grayscale">
                    <feColorMatrix type="saturate" values="0"/>
                </filter>
                <g filter="url(#grayscale)">
                    <svg xmlns="http://www.w3.org/2000/svg" viewBox="-28 154.885 645.4199829101562 246.39600106811525"> <svg xmlns="http://www.w3.org/2000/svg" id="Layer_1" dataName="Layer 1" viewBox="0 0 1079.9998779296875 871.2501220703125" height="92.765625" width="115" y="224.885" x="42" preserveAspectRatio="xMinYMin" style="overflow: visible;"><path class="cls-1" d="M909.37,0,500,334.5H662.48L502.85,569C483,598.13,445,614.64,406.54,609.7a102.38,102.38,0,0,1-49.44-20c-4-3.08-8-6.18-12.1-9.13L0,333.52,395.87,811.36c53.24,64.26,138.06,91.1,220.28,7.26C726.41,706.2,1053.9,366.53,1053.9,366.53c23.89-22,32.15-53.53,21.57-82.35Z" style="fill: #006826; fill-opacity: 1;"></path></svg> <svg x="195.305" y="317.651" viewBox="0.2900000214576721 2.740000009536743 327.80999755859375 13.630001068115234" height="13.630001068115234" width="327.80999755859375" style="overflow: visible;"><g fill="#F5F5F5" style=""><path d="M3.46 13.65L3.46 13.65Q2.52 13.65 1.66 13.40Q0.80 13.16 0.29 12.81L0.29 12.81L0.97 11.48Q1.47 11.80 2.17 12.01Q2.87 12.22 3.57 12.22L3.57 12.22Q4.40 12.22 4.77 12.00Q5.14 11.77 5.14 11.40L5.14 11.40Q5.14 11.09 4.89 10.93Q4.63 10.77 4.23 10.68Q3.82 10.60 3.33 10.53Q2.83 10.46 2.33 10.34Q1.83 10.22 1.43 9.99Q1.02 9.76 0.77 9.37Q0.52 8.97 0.52 8.33L0.52 8.33Q0.52 7.62 0.92 7.09Q1.33 6.57 2.06 6.28Q2.80 5.99 3.81 5.99L3.81 5.99Q4.56 5.99 5.33 6.16Q6.10 6.33 6.61 6.64L6.61 6.64L5.94 7.97Q5.40 7.64 4.87 7.52Q4.33 7.41 3.79 7.41L3.79 7.41Q3.00 7.41 2.61 7.64Q2.23 7.88 2.23 8.25L2.23 8.25Q2.23 8.58 2.48 8.75Q2.73 8.92 3.14 9.02Q3.54 9.11 4.04 9.18Q4.54 9.24 5.03 9.37Q5.52 9.49 5.93 9.71Q6.34 9.93 6.59 10.32Q6.85 10.71 6.85 11.34L6.85 11.34Q6.85 12.04 6.43 12.56Q6.02 13.08 5.26 13.36Q4.51 13.65 3.46 13.65ZM15.72 13.65L15.72 13.65Q14.77 13.65 14.04 13.29Q13.31 12.94 12.91 12.20Q12.50 11.47 12.50 10.35L12.50 10.35L12.50 6.08L14.25 6.08L14.25 10.11Q14.25 11.12 14.71 11.61Q15.16 12.11 16.00 12.11L16.00 12.11Q16.62 12.11 17.07 11.86Q17.53 11.61 17.79 11.10Q18.05 10.60 18.05 9.86L18.05 9.86L18.05 6.08L19.80 6.08L19.80 13.55L18.13 13.55L18.13 11.54L18.42 12.15Q18.05 12.88 17.32 13.26Q16.59 13.65 15.72 13.65ZM28.60 13.65L28.60 13.65Q27.66 13.65 26.80 13.40Q25.94 13.16 25.44 12.81L25.44 12.81L26.11 11.48Q26.61 11.80 27.31 12.01Q28.01 12.22 28.71 12.22L28.71 12.22Q29.54 12.22 29.91 12.00Q30.28 11.77 30.28 11.40L30.28 11.40Q30.28 11.09 30.03 10.93Q29.78 10.77 29.37 10.68Q28.97 10.60 28.47 10.53Q27.97 10.46 27.48 10.34Q26.98 10.22 26.57 9.99Q26.17 9.76 25.91 9.37Q25.66 8.97 25.66 8.33L25.66 8.33Q25.66 7.62 26.07 7.09Q26.47 6.57 27.21 6.28Q27.94 5.99 28.95 5.99L28.95 5.99Q29.71 5.99 30.48 6.16Q31.25 6.33 31.75 6.64L31.75 6.64L31.08 7.97Q30.55 7.64 30.01 7.52Q29.47 7.41 28.94 7.41L28.94 7.41Q28.14 7.41 27.76 7.64Q27.37 7.88 27.37 8.25L27.37 8.25Q27.37 8.58 27.62 8.75Q27.87 8.92 28.28 9.02Q28.69 9.11 29.18 9.18Q29.68 9.24 30.17 9.37Q30.66 9.49 31.07 9.71Q31.49 9.93 31.74 10.32Q31.99 10.71 31.99 11.34L31.99 11.34Q31.99 12.04 31.58 12.56Q31.16 13.08 30.41 13.36Q29.65 13.65 28.60 13.65ZM40.52 13.65L40.52 13.65Q39.28 13.65 38.61 13.01Q37.94 12.38 37.94 11.13L37.94 11.13L37.94 4.42L39.69 4.42L39.69 11.09Q39.69 11.62 39.96 11.91Q40.24 12.21 40.73 12.21L40.73 12.21Q41.31 12.21 41.71 11.90L41.71 11.90L42.20 13.15Q41.89 13.40 41.44 13.52Q40.99 13.65 40.52 13.65ZM41.69 7.48L36.71 7.48L36.71 6.08L41.69 6.08L41.69 7.48ZM54.10 13.55L52.44 13.55L52.44 12.04L52.35 11.72L52.35 9.07Q52.35 8.30 51.88 7.87Q51.42 7.45 50.48 7.45L50.48 7.45Q49.85 7.45 49.25 7.64Q48.64 7.84 48.22 8.19L48.22 8.19L47.53 6.92Q48.13 6.45 48.97 6.22Q49.80 5.99 50.69 5.99L50.69 5.99Q52.32 5.99 53.21 6.77Q54.10 7.55 54.10 9.17L54.10 9.17L54.10 13.55ZM50.09 13.65L50.09 13.65Q49.25 13.65 48.62 13.36Q47.99 13.08 47.65 12.56Q47.31 12.05 47.31 11.41L47.31 11.41Q47.31 10.78 47.61 10.28Q47.91 9.77 48.59 9.48Q49.28 9.18 50.41 9.18L50.41 9.18L52.58 9.18L52.58 10.35L50.54 10.35Q49.64 10.35 49.34 10.63Q49.03 10.92 49.03 11.34L49.03 11.34Q49.03 11.82 49.41 12.10Q49.78 12.38 50.46 12.38L50.46 12.38Q51.10 12.38 51.61 12.08Q52.12 11.79 52.35 11.21L52.35 11.21L52.64 12.26Q52.39 12.92 51.74 13.29Q51.09 13.65 50.09 13.65ZM62.29 13.55L60.54 13.55L60.54 6.08L62.29 6.08L62.29 13.55ZM61.42 4.84L61.42 4.84Q60.93 4.84 60.61 4.54Q60.30 4.23 60.30 3.79L60.30 3.79Q60.30 3.35 60.61 3.04Q60.93 2.74 61.42 2.74L61.42 2.74Q61.91 2.74 62.22 3.03Q62.54 3.32 62.54 3.75L62.54 3.75Q62.54 4.21 62.23 4.53Q61.92 4.84 61.42 4.84ZM70.53 13.55L68.78 13.55L68.78 6.08L70.45 6.08L70.45 8.09L70.15 7.48Q70.55 6.76 71.30 6.38Q72.04 5.99 73.02 5.99L73.02 5.99Q73.92 5.99 74.63 6.34Q75.33 6.69 75.74 7.41Q76.15 8.13 76.15 9.27L76.15 9.27L76.15 13.55L74.40 13.55L74.40 9.49Q74.40 8.50 73.93 8.01Q73.46 7.52 72.62 7.52L72.62 7.52Q72.00 7.52 71.53 7.77Q71.05 8.02 70.79 8.52Q70.53 9.02 70.53 9.77L70.53 9.77L70.53 13.55ZM88.83 13.55L87.18 13.55L87.18 12.04L87.08 11.72L87.08 9.07Q87.08 8.30 86.62 7.87Q86.16 7.45 85.22 7.45L85.22 7.45Q84.59 7.45 83.98 7.64Q83.37 7.84 82.95 8.19L82.95 8.19L82.26 6.92Q82.87 6.45 83.70 6.22Q84.53 5.99 85.43 5.99L85.43 5.99Q87.05 5.99 87.94 6.77Q88.83 7.55 88.83 9.17L88.83 9.17L88.83 13.55ZM84.83 13.65L84.83 13.65Q83.99 13.65 83.36 13.36Q82.73 13.08 82.38 12.56Q82.04 12.05 82.04 11.41L82.04 11.41Q82.04 10.78 82.34 10.28Q82.64 9.77 83.33 9.48Q84.01 9.18 85.15 9.18L85.15 9.18L87.32 9.18L87.32 10.35L85.27 10.35Q84.38 10.35 84.07 10.63Q83.76 10.92 83.76 11.34L83.76 11.34Q83.76 11.82 84.14 12.10Q84.52 12.38 85.19 12.38L85.19 12.38Q85.83 12.38 86.35 12.08Q86.86 11.79 87.08 11.21L87.08 11.21L87.37 12.26Q87.12 12.92 86.47 13.29Q85.82 13.65 84.83 13.65ZM99.41 13.65L99.41 13.65Q98.46 13.65 97.72 13.23Q96.98 12.81 96.55 11.96Q96.12 11.12 96.12 9.81L96.12 9.81Q96.12 8.50 96.57 7.66Q97.01 6.82 97.76 6.40Q98.50 5.99 99.41 5.99L99.41 5.99Q100.52 5.99 101.37 6.47Q102.21 6.94 102.71 7.80Q103.21 8.65 103.21 9.81L103.21 9.81Q103.21 10.98 102.71 11.83Q102.21 12.68 101.37 13.17Q100.52 13.65 99.41 13.65ZM96.94 13.55L95.27 13.55L95.27 3.16L97.02 3.16L97.02 7.81L96.88 9.80L96.94 11.79L96.94 13.55ZM99.22 12.15L99.22 12.15Q99.85 12.15 100.35 11.87Q100.84 11.59 101.14 11.06Q101.43 10.53 101.43 9.81L101.43 9.81Q101.43 9.09 101.14 8.56Q100.84 8.04 100.35 7.76Q99.85 7.48 99.22 7.48L99.22 7.48Q98.59 7.48 98.08 7.76Q97.58 8.04 97.29 8.56Q96.99 9.09 96.99 9.81L96.99 9.81Q96.99 10.53 97.29 11.06Q97.58 11.59 98.08 11.87Q98.59 12.15 99.22 12.15ZM110.82 13.55L109.07 13.55L109.07 3.16L110.82 3.16L110.82 13.55ZM120.83 13.65L120.83 13.65Q119.59 13.65 118.66 13.15Q117.73 12.66 117.22 11.79Q116.70 10.92 116.70 9.81L116.70 9.81Q116.70 8.69 117.20 7.83Q117.70 6.97 118.57 6.48Q119.45 5.99 120.57 5.99L120.57 5.99Q121.66 5.99 122.51 6.47Q123.37 6.94 123.86 7.81Q124.35 8.68 124.35 9.86L124.35 9.86Q124.35 9.97 124.34 10.11Q124.33 10.25 124.32 10.37L124.32 10.37L118.09 10.37L118.09 9.21L123.40 9.21L122.71 9.58Q122.72 8.93 122.44 8.44Q122.16 7.95 121.68 7.67Q121.20 7.39 120.57 7.39L120.57 7.39Q119.92 7.39 119.44 7.67Q118.96 7.95 118.69 8.45Q118.41 8.95 118.41 9.62L118.41 9.62L118.41 9.90Q118.41 10.57 118.72 11.09Q119.03 11.61 119.59 11.89Q120.15 12.17 120.88 12.17L120.88 12.17Q121.51 12.17 122.01 11.97Q122.51 11.77 122.91 11.35L122.91 11.35L123.84 12.43Q123.34 13.02 122.58 13.33Q121.81 13.65 120.83 13.65ZM144.55 13.55L142.90 13.55L142.90 12.04L142.80 11.72L142.80 9.07Q142.80 8.30 142.34 7.87Q141.88 7.45 140.94 7.45L140.94 7.45Q140.31 7.45 139.70 7.64Q139.09 7.84 138.67 8.19L138.67 8.19L137.98 6.92Q138.59 6.45 139.42 6.22Q140.25 5.99 141.15 5.99L141.15 5.99Q142.77 5.99 143.66 6.77Q144.55 7.55 144.55 9.17L144.55 9.17L144.55 13.55ZM140.55 13.65L140.55 13.65Q139.71 13.65 139.08 13.36Q138.45 13.08 138.10 12.56Q137.76 12.05 137.76 11.41L137.76 11.41Q137.76 10.78 138.06 10.28Q138.36 9.77 139.05 9.48Q139.73 9.18 140.87 9.18L140.87 9.18L143.04 9.18L143.04 10.35L140.99 10.35Q140.10 10.35 139.79 10.63Q139.48 10.92 139.48 11.34L139.48 11.34Q139.48 11.82 139.86 12.10Q140.24 12.38 140.91 12.38L140.91 12.38Q141.55 12.38 142.06 12.08Q142.58 11.79 142.80 11.21L142.80 11.21L143.09 12.26Q142.84 12.92 142.19 13.29Q141.54 13.65 140.55 13.65ZM154.38 16.37L154.38 16.37Q153.34 16.37 152.35 16.09Q151.37 15.82 150.74 15.30L150.74 15.30L151.52 13.99Q152.01 14.39 152.76 14.64Q153.51 14.88 154.28 14.88L154.28 14.88Q155.51 14.88 156.09 14.31Q156.66 13.75 156.66 12.61L156.66 12.61L156.66 11.28L156.80 9.59L156.74 7.90L156.74 6.08L158.41 6.08L158.41 12.42Q158.41 14.45 157.37 15.41Q156.34 16.37 154.38 16.37ZM154.15 13.22L154.15 13.22Q153.09 13.22 152.23 12.76Q151.37 12.31 150.87 11.49Q150.37 10.68 150.37 9.59L150.37 9.59Q150.37 8.51 150.87 7.70Q151.37 6.89 152.23 6.44Q153.09 5.99 154.15 5.99L154.15 5.99Q155.11 5.99 155.86 6.37Q156.62 6.75 157.07 7.55Q157.53 8.34 157.53 9.59L157.53 9.59Q157.53 10.84 157.07 11.64Q156.62 12.45 155.86 12.83Q155.11 13.22 154.15 13.22ZM154.42 11.73L154.42 11.73Q155.08 11.73 155.60 11.46Q156.11 11.19 156.40 10.70Q156.69 10.22 156.69 9.59L156.69 9.59Q156.69 8.96 156.40 8.48Q156.11 7.99 155.60 7.73Q155.08 7.48 154.42 7.48L154.42 7.48Q153.76 7.48 153.24 7.73Q152.71 7.99 152.42 8.48Q152.14 8.96 152.14 9.59L152.14 9.59Q152.14 10.22 152.42 10.70Q152.71 11.19 153.24 11.46Q153.76 11.73 154.42 11.73ZM168.42 13.65L168.42 13.65Q167.17 13.65 166.24 13.15Q165.31 12.66 164.80 11.79Q164.29 10.92 164.29 9.81L164.29 9.81Q164.29 8.69 164.79 7.83Q165.28 6.97 166.16 6.48Q167.03 5.99 168.15 5.99L168.15 5.99Q169.25 5.99 170.10 6.47Q170.95 6.94 171.44 7.81Q171.93 8.68 171.93 9.86L171.93 9.86Q171.93 9.97 171.93 10.11Q171.92 10.25 171.91 10.37L171.91 10.37L165.68 10.37L165.68 9.21L170.98 9.21L170.30 9.58Q170.31 8.93 170.03 8.44Q169.75 7.95 169.27 7.67Q168.78 7.39 168.15 7.39L168.15 7.39Q167.51 7.39 167.03 7.67Q166.54 7.95 166.27 8.45Q166.00 8.95 166.00 9.62L166.00 9.62L166.00 9.90Q166.00 10.57 166.31 11.09Q166.61 11.61 167.17 11.89Q167.73 12.17 168.46 12.17L168.46 12.17Q169.09 12.17 169.60 11.97Q170.10 11.77 170.49 11.35L170.49 11.35L171.43 12.43Q170.93 13.02 170.16 13.33Q169.40 13.65 168.42 13.65ZM179.56 13.55L177.81 13.55L177.81 6.08L179.48 6.08L179.48 8.09L179.19 7.48Q179.58 6.76 180.33 6.38Q181.08 5.99 182.06 5.99L182.06 5.99Q182.95 5.99 183.66 6.34Q184.37 6.69 184.77 7.41Q185.18 8.13 185.18 9.27L185.18 9.27L185.18 13.55L183.43 13.55L183.43 9.49Q183.43 8.50 182.96 8.01Q182.49 7.52 181.65 7.52L181.65 7.52Q181.03 7.52 180.56 7.77Q180.08 8.02 179.82 8.52Q179.56 9.02 179.56 9.77L179.56 9.77L179.56 13.55ZM194.42 13.65L194.42 13.65Q193.19 13.65 192.51 13.01Q191.84 12.38 191.84 11.13L191.84 11.13L191.84 4.42L193.59 4.42L193.59 11.09Q193.59 11.62 193.86 11.91Q194.14 12.21 194.63 12.21L194.63 12.21Q195.22 12.21 195.61 11.90L195.61 11.90L196.10 13.15Q195.79 13.40 195.34 13.52Q194.89 13.65 194.42 13.65ZM195.59 7.48L190.61 7.48L190.61 6.08L195.59 6.08L195.59 7.48ZM203.49 13.55L201.74 13.55L201.74 6.08L203.49 6.08L203.49 13.55ZM202.62 4.84L202.62 4.84Q202.13 4.84 201.82 4.54Q201.50 4.23 201.50 3.79L201.50 3.79Q201.50 3.35 201.82 3.04Q202.13 2.74 202.62 2.74L202.62 2.74Q203.11 2.74 203.43 3.03Q203.74 3.32 203.74 3.75L203.74 3.75Q203.74 4.21 203.43 4.53Q203.13 4.84 202.62 4.84ZM213.42 13.65L213.42 13.65Q212.24 13.65 211.32 13.15Q210.41 12.66 209.89 11.79Q209.37 10.92 209.37 9.81L209.37 9.81Q209.37 8.69 209.89 7.83Q210.41 6.97 211.32 6.48Q212.24 5.99 213.42 5.99L213.42 5.99Q214.51 5.99 215.34 6.43Q216.17 6.87 216.61 7.73L216.61 7.73L215.26 8.51Q214.93 7.98 214.44 7.73Q213.96 7.48 213.40 7.48L213.40 7.48Q212.76 7.48 212.24 7.76Q211.72 8.04 211.43 8.56Q211.13 9.09 211.13 9.81L211.13 9.81Q211.13 10.54 211.43 11.07Q211.72 11.59 212.24 11.87Q212.76 12.15 213.40 12.15L213.40 12.15Q213.96 12.15 214.44 11.90Q214.93 11.65 215.26 11.12L215.26 11.12L216.61 11.90Q216.17 12.74 215.34 13.20Q214.51 13.65 213.42 13.65ZM232.69 13.65L232.69 13.65Q231.76 13.65 230.89 13.40Q230.03 13.16 229.53 12.81L229.53 12.81L230.20 11.48Q230.71 11.80 231.41 12.01Q232.11 12.22 232.81 12.22L232.81 12.22Q233.63 12.22 234.00 12.00Q234.37 11.77 234.37 11.40L234.37 11.40Q234.37 11.09 234.12 10.93Q233.87 10.77 233.46 10.68Q233.06 10.60 232.56 10.53Q232.06 10.46 231.57 10.34Q231.07 10.22 230.66 9.99Q230.26 9.76 230.01 9.37Q229.75 8.97 229.75 8.33L229.75 8.33Q229.75 7.62 230.16 7.09Q230.57 6.57 231.30 6.28Q232.04 5.99 233.04 5.99L233.04 5.99Q233.80 5.99 234.57 6.16Q235.34 6.33 235.84 6.64L235.84 6.64L235.17 7.97Q234.64 7.64 234.10 7.52Q233.56 7.41 233.03 7.41L233.03 7.41Q232.23 7.41 231.85 7.64Q231.46 7.88 231.46 8.25L231.46 8.25Q231.46 8.58 231.71 8.75Q231.97 8.92 232.37 9.02Q232.78 9.11 233.27 9.18Q233.77 9.24 234.26 9.37Q234.75 9.49 235.16 9.71Q235.58 9.93 235.83 10.32Q236.08 10.71 236.08 11.34L236.08 11.34Q236.08 12.04 235.67 12.56Q235.26 13.08 234.50 13.36Q233.74 13.65 232.69 13.65ZM245.15 13.65L245.15 13.65Q244.01 13.65 243.11 13.15Q242.21 12.66 241.70 11.79Q241.18 10.92 241.18 9.81L241.18 9.81Q241.18 8.69 241.70 7.83Q242.21 6.97 243.11 6.48Q244.01 5.99 245.15 5.99L245.15 5.99Q246.32 5.99 247.22 6.48Q248.12 6.97 248.63 7.83Q249.14 8.68 249.14 9.81L249.14 9.81Q249.14 10.92 248.63 11.79Q248.12 12.66 247.22 13.15Q246.32 13.65 245.15 13.65ZM245.15 12.15L245.15 12.15Q245.80 12.15 246.30 11.87Q246.81 11.59 247.09 11.06Q247.38 10.53 247.38 9.81L247.38 9.81Q247.38 9.09 247.09 8.56Q246.81 8.04 246.30 7.76Q245.80 7.48 245.17 7.48L245.17 7.48Q244.52 7.48 244.03 7.76Q243.53 8.04 243.24 8.56Q242.94 9.09 242.94 9.81L242.94 9.81Q242.94 10.53 243.24 11.06Q243.53 11.59 244.03 11.87Q244.52 12.15 245.15 12.15ZM256.77 13.55L255.02 13.55L255.02 3.16L256.77 3.16L256.77 13.55ZM266.43 13.65L266.43 13.65Q265.48 13.65 264.75 13.29Q264.03 12.94 263.62 12.20Q263.21 11.47 263.21 10.35L263.21 10.35L263.21 6.08L264.96 6.08L264.96 10.11Q264.96 11.12 265.42 11.61Q265.87 12.11 266.71 12.11L266.71 12.11Q267.33 12.11 267.78 11.86Q268.24 11.61 268.50 11.10Q268.76 10.60 268.76 9.86L268.76 9.86L268.76 6.08L270.51 6.08L270.51 13.55L268.84 13.55L268.84 11.54L269.14 12.15Q268.76 12.88 268.03 13.26Q267.30 13.65 266.43 13.65ZM279.82 13.65L279.82 13.65Q278.59 13.65 277.91 13.01Q277.24 12.38 277.24 11.13L277.24 11.13L277.24 4.42L278.99 4.42L278.99 11.09Q278.99 11.62 279.26 11.91Q279.54 12.21 280.03 12.21L280.03 12.21Q280.62 12.21 281.01 11.90L281.01 11.90L281.50 13.15Q281.19 13.40 280.74 13.52Q280.29 13.65 279.82 13.65ZM280.99 7.48L276.01 7.48L276.01 6.08L280.99 6.08L280.99 7.48ZM288.89 13.55L287.14 13.55L287.14 6.08L288.89 6.08L288.89 13.55ZM288.02 4.84L288.02 4.84Q287.53 4.84 287.22 4.54Q286.90 4.23 286.90 3.79L286.90 3.79Q286.90 3.35 287.22 3.04Q287.53 2.74 288.02 2.74L288.02 2.74Q288.51 2.74 288.83 3.03Q289.14 3.32 289.14 3.75L289.14 3.75Q289.14 4.21 288.83 4.53Q288.53 4.84 288.02 4.84ZM298.75 13.65L298.75 13.65Q297.60 13.65 296.70 13.15Q295.81 12.66 295.29 11.79Q294.77 10.92 294.77 9.81L294.77 9.81Q294.77 8.69 295.29 7.83Q295.81 6.97 296.70 6.48Q297.60 5.99 298.75 5.99L298.75 5.99Q299.91 5.99 300.81 6.48Q301.71 6.97 302.22 7.83Q302.74 8.68 302.74 9.81L302.74 9.81Q302.74 10.92 302.22 11.79Q301.71 12.66 300.81 13.15Q299.91 13.65 298.75 13.65ZM298.75 12.15L298.75 12.15Q299.39 12.15 299.89 11.87Q300.40 11.59 300.68 11.06Q300.97 10.53 300.97 9.81L300.97 9.81Q300.97 9.09 300.68 8.56Q300.40 8.04 299.89 7.76Q299.39 7.48 298.76 7.48L298.76 7.48Q298.12 7.48 297.62 7.76Q297.12 8.04 296.83 8.56Q296.53 9.09 296.53 9.81L296.53 9.81Q296.53 10.53 296.83 11.06Q297.12 11.59 297.62 11.87Q298.12 12.15 298.75 12.15ZM310.37 13.55L308.62 13.55L308.62 6.08L310.28 6.08L310.28 8.09L309.99 7.48Q310.38 6.76 311.13 6.38Q311.88 5.99 312.86 5.99L312.86 5.99Q313.75 5.99 314.46 6.34Q315.17 6.69 315.57 7.41Q315.98 8.13 315.98 9.27L315.98 9.27L315.98 13.55L314.23 13.55L314.23 9.49Q314.23 8.50 313.76 8.01Q313.29 7.52 312.45 7.52L312.45 7.52Q311.84 7.52 311.36 7.77Q310.88 8.02 310.62 8.52Q310.37 9.02 310.37 9.77L310.37 9.77L310.37 13.55ZM324.72 13.65L324.72 13.65Q323.78 13.65 322.92 13.40Q322.06 13.16 321.55 12.81L321.55 12.81L322.22 11.48Q322.73 11.80 323.43 12.01Q324.13 12.22 324.83 12.22L324.83 12.22Q325.65 12.22 326.02 12.00Q326.40 11.77 326.40 11.40L326.40 11.40Q326.40 11.09 326.14 10.93Q325.89 10.77 325.49 10.68Q325.08 10.60 324.58 10.53Q324.09 10.46 323.59 10.34Q323.09 10.22 322.69 9.99Q322.28 9.76 322.03 9.37Q321.78 8.97 321.78 8.33L321.78 8.33Q321.78 7.62 322.18 7.09Q322.59 6.57 323.32 6.28Q324.06 5.99 325.07 5.99L325.07 5.99Q325.82 5.99 326.59 6.16Q327.36 6.33 327.87 6.64L327.87 6.64L327.19 7.97Q326.66 7.64 326.12 7.52Q325.58 7.41 325.05 7.41L325.05 7.41Q324.25 7.41 323.87 7.64Q323.48 7.88 323.48 8.25L323.48 8.25Q323.48 8.58 323.74 8.75Q323.99 8.92 324.39 9.02Q324.80 9.11 325.30 9.18Q325.79 9.24 326.28 9.37Q326.77 9.49 327.19 9.71Q327.60 9.93 327.85 10.32Q328.10 10.71 328.10 11.34L328.10 11.34Q328.10 12.04 327.69 12.56Q327.28 13.08 326.52 13.36Q325.77 13.65 324.72 13.65Z" transform="translate(0, 0)"></path></g></svg> <svg x="171" y="263.91" viewBox="2.450000047683716 13.430000305175781 376.41998291015625 47.18000030517578" height="47.18000030517578" width="376.41998291015625" style="overflow: visible;"><g fill="#FFFFFF" fill-opacity="1" style=""><path d="M15.39 50.81L15.39 50.81Q9.02 50.81 5.73 47.29Q2.45 43.76 2.45 37.68L2.45 37.68Q2.45 34.59 3.31 32.12Q4.17 29.64 5.76 27.91Q7.35 26.17 9.63 25.26Q11.91 24.35 14.75 24.35L14.75 24.35Q17.59 24.35 19.85 25.26Q22.10 26.17 23.67 27.83Q25.23 29.50 26.09 31.87Q26.95 34.25 26.95 37.19L26.95 37.19L26.95 39.35L9.65 39.35L9.65 39.79Q9.65 42.24 11.17 43.73Q12.69 45.23 15.63 45.23L15.63 45.23Q17.89 45.23 19.50 44.37Q21.12 43.51 22.30 42.09L22.30 42.09L26.21 46.35Q24.75 48.17 22.10 49.49Q19.45 50.81 15.39 50.81ZM14.80 29.55L14.80 29.55Q12.45 29.55 11.05 30.99Q9.65 32.44 9.65 34.89L9.65 34.89L9.65 35.28L19.85 35.28L19.85 34.89Q19.85 32.39 18.50 30.97Q17.15 29.55 14.80 29.55ZM43.81 50.81L43.81 50.81Q39.59 50.81 36.48 49.54Q33.37 48.27 31.80 46.06L31.80 46.06L35.87 42.29Q37.34 43.90 39.32 44.81Q41.31 45.72 43.86 45.72L43.86 45.72Q46.01 45.72 47.24 45.06Q48.46 44.39 48.46 43.02L48.46 43.02Q48.46 41.94 47.63 41.53Q46.80 41.11 45.33 40.87L45.33 40.87L41.26 40.23Q39.54 39.98 38.07 39.47Q36.60 38.95 35.53 38.07Q34.45 37.19 33.81 35.92Q33.17 34.64 33.17 32.83L33.17 32.83Q33.17 28.86 36.21 26.61Q39.25 24.35 44.74 24.35L44.74 24.35Q48.46 24.35 51.08 25.36Q53.70 26.36 55.27 28.22L55.27 28.22L51.65 32.34Q50.52 31.12 48.76 30.28Q46.99 29.45 44.49 29.45L44.49 29.45Q40.28 29.45 40.28 32.00L40.28 32.00Q40.28 33.12 41.11 33.54Q41.94 33.96 43.41 34.20L43.41 34.20L47.43 34.84Q49.15 35.08 50.62 35.60Q52.09 36.11 53.19 37.00Q54.29 37.88 54.93 39.15Q55.57 40.42 55.57 42.24L55.57 42.24Q55.57 46.21 52.50 48.51Q49.44 50.81 43.81 50.81ZM61.99 50.23L61.99 13.97L69.24 13.97L69.24 34.55L69.58 34.55L72.96 30.58L78.25 24.94L86.58 24.94L76.78 34.94L87.61 50.23L78.99 50.23L71.64 39.05L69.24 41.45L69.24 50.23L61.99 50.23ZM116.23 50.23L112.06 50.23Q109.81 50.23 108.44 49.07Q107.06 47.92 106.82 45.77L106.82 45.77L106.58 45.77Q105.89 48.27 103.86 49.54Q101.82 50.81 98.88 50.81L98.88 50.81Q95.21 50.81 92.98 48.83Q90.75 46.84 90.75 43.27L90.75 43.27Q90.75 39.30 93.64 37.39Q96.53 35.48 102.12 35.48L102.12 35.48L106.18 35.48L106.18 34.20Q106.18 31.95 105.13 30.80Q104.08 29.64 101.58 29.64L101.58 29.64Q99.27 29.64 97.85 30.53Q96.43 31.41 95.40 32.83L95.40 32.83L91.43 29.30Q92.71 27.15 95.43 25.75Q98.15 24.35 102.41 24.35L102.41 24.35Q107.60 24.35 110.52 26.73Q113.44 29.11 113.44 33.91L113.44 33.91L113.44 44.98L116.23 44.98L116.23 50.23ZM101.63 46.06L101.63 46.06Q103.54 46.06 104.86 45.13Q106.18 44.20 106.18 42.43L106.18 42.43L106.18 39.40L102.31 39.40Q97.85 39.40 97.85 42.39L97.85 42.39L97.85 43.37Q97.85 44.69 98.88 45.37Q99.91 46.06 101.63 46.06ZM134.90 35.57L138.67 24.94L146.07 24.94L134.16 54.29Q133.03 57.09 131.17 58.55Q129.31 60.03 126.08 60.03L126.08 60.03L121.08 60.03L121.08 54.39L127.16 54.39L128.72 50.08L118.53 24.94L126.32 24.94L130.00 35.57L132.30 42.92L132.69 42.92L134.90 35.57ZM195.66 50.23L195.66 45.62L195.31 45.62Q194.33 47.92 192.59 49.37Q190.86 50.81 187.82 50.81L187.82 50.81Q185.71 50.81 183.97 50.03Q182.23 49.25 180.98 47.63Q179.73 46.01 179.02 43.51Q178.31 41.01 178.31 37.58L178.31 37.58Q178.31 34.15 179.02 31.65Q179.73 29.16 180.98 27.54Q182.23 25.92 183.97 25.14Q185.71 24.35 187.82 24.35L187.82 24.35Q189.34 24.35 190.51 24.75Q191.69 25.14 192.59 25.82Q193.50 26.51 194.16 27.46Q194.82 28.42 195.31 29.55L195.31 29.55L195.66 29.55L195.66 13.97L202.91 13.97L202.91 50.23L195.66 50.23ZM190.95 45.18L190.95 45.18Q192.86 45.18 194.26 44.25Q195.66 43.32 195.66 41.31L195.66 41.31L195.66 33.86Q195.66 31.85 194.26 30.92Q192.86 29.99 190.95 29.99L190.95 29.99Q188.50 29.99 187.18 31.48Q185.86 32.98 185.86 35.62L185.86 35.62L185.86 39.54Q185.86 42.19 187.18 43.68Q188.50 45.18 190.95 45.18ZM222.07 21.71L222.07 21.71Q219.62 21.71 218.66 20.70Q217.71 19.70 217.71 18.28L217.71 18.28L217.71 16.86Q217.71 15.39 218.66 14.41Q219.62 13.43 222.07 13.43L222.07 13.43Q224.52 13.43 225.47 14.41Q226.43 15.39 226.43 16.86L226.43 16.86L226.43 18.28Q226.43 19.70 225.47 20.70Q224.52 21.71 222.07 21.71ZM210.41 50.23L210.41 44.59L218.44 44.59L218.44 30.58L210.41 30.58L210.41 24.94L225.69 24.94L225.69 44.59L233.14 44.59L233.14 50.23L210.41 50.23ZM263.77 52.77L263.77 52.77Q263.77 56.79 260.39 58.70Q257.00 60.61 249.75 60.61L249.75 60.61Q246.13 60.61 243.78 60.20Q241.42 59.78 240.03 59.00Q238.63 58.21 238.07 57.13Q237.50 56.06 237.50 54.78L237.50 54.78Q237.50 52.63 238.78 51.52Q240.05 50.42 242.35 49.83L242.35 49.83L242.35 49.54Q240.74 49.05 239.78 48.14Q238.83 47.24 238.83 45.57L238.83 45.57Q238.83 43.71 240.08 42.83Q241.33 41.94 243.38 41.45L243.38 41.45L243.38 41.16Q241.13 40.08 239.88 38.12Q238.63 36.16 238.63 33.37L238.63 33.37Q238.63 31.16 239.41 29.47Q240.20 27.78 241.64 26.66Q243.09 25.53 245.10 24.94Q247.11 24.35 249.61 24.35L249.61 24.35Q252.01 24.35 254.07 24.89L254.07 24.89L254.07 23.52Q254.07 22.05 255.09 21.07Q256.12 20.09 257.94 20.09L257.94 20.09L262.40 20.09L262.40 25.38L256.32 25.38L256.32 25.82Q258.38 26.90 259.53 28.79Q260.68 30.67 260.68 33.37L260.68 33.37Q260.68 35.57 259.90 37.24Q259.11 38.91 257.64 40.06Q256.17 41.21 254.14 41.80Q252.11 42.39 249.61 42.39L249.61 42.39Q248.48 42.39 247.45 42.26Q246.42 42.14 245.49 41.90L245.49 41.90Q244.95 42.19 244.58 42.63Q244.22 43.07 244.22 43.76L244.22 43.76Q244.22 44.34 244.51 44.69Q244.80 45.03 245.32 45.20Q245.83 45.37 246.52 45.42Q247.21 45.47 247.94 45.47L247.94 45.47L253.72 45.47Q256.42 45.47 258.33 46.01Q260.24 46.55 261.46 47.53Q262.69 48.51 263.23 49.83Q263.77 51.16 263.77 52.77ZM256.91 53.31L256.91 53.31Q256.91 52.33 256.12 51.77Q255.34 51.20 253.13 51.20L253.13 51.20L244.46 51.20Q243.48 52.04 243.48 53.26L243.48 53.26Q243.48 54.44 244.49 55.20Q245.49 55.96 247.89 55.96L247.89 55.96L252.15 55.96Q254.65 55.96 255.78 55.27Q256.91 54.59 256.91 53.31ZM249.61 37.78L249.61 37.78Q251.81 37.78 252.82 36.70Q253.82 35.62 253.82 33.96L253.82 33.96L253.82 32.78Q253.82 31.12 252.82 30.04Q251.81 28.96 249.61 28.96L249.61 28.96Q247.45 28.96 246.47 30.04Q245.49 31.12 245.49 32.78L245.49 32.78L245.49 33.96Q245.49 35.62 246.47 36.70Q247.45 37.78 249.61 37.78ZM280.87 21.71L280.87 21.71Q278.42 21.71 277.46 20.70Q276.51 19.70 276.51 18.28L276.51 18.28L276.51 16.86Q276.51 15.39 277.46 14.41Q278.42 13.43 280.87 13.43L280.87 13.43Q283.32 13.43 284.27 14.41Q285.23 15.39 285.23 16.86L285.23 16.86L285.23 18.28Q285.23 19.70 284.27 20.70Q283.32 21.71 280.87 21.71ZM269.21 50.23L269.21 44.59L277.24 44.59L277.24 30.58L269.21 30.58L269.21 24.94L284.49 24.94L284.49 44.59L291.94 44.59L291.94 50.23L269.21 50.23ZM320.02 50.23L310.66 50.23Q306.74 50.23 304.83 48.17Q302.92 46.11 302.92 42.92L302.92 42.92L302.92 30.58L296.06 30.58L296.06 24.94L300.52 24.94Q302.13 24.94 302.82 24.30Q303.51 23.67 303.51 21.95L303.51 21.95L303.51 16.02L310.17 16.02L310.17 24.94L320.02 24.94L320.02 30.58L310.17 30.58L310.17 44.59L320.02 44.59L320.02 50.23ZM351.43 50.23L347.26 50.23Q345.01 50.23 343.64 49.07Q342.26 47.92 342.02 45.77L342.02 45.77L341.77 45.77Q341.09 48.27 339.06 49.54Q337.02 50.81 334.08 50.81L334.08 50.81Q330.41 50.81 328.18 48.83Q325.95 46.84 325.95 43.27L325.95 43.27Q325.95 39.30 328.84 37.39Q331.73 35.48 337.32 35.48L337.32 35.48L341.38 35.48L341.38 34.20Q341.38 31.95 340.33 30.80Q339.28 29.64 336.78 29.64L336.78 29.64Q334.47 29.64 333.05 30.53Q331.63 31.41 330.60 32.83L330.60 32.83L326.63 29.30Q327.91 27.15 330.63 25.75Q333.35 24.35 337.61 24.35L337.61 24.35Q342.80 24.35 345.72 26.73Q348.63 29.11 348.63 33.91L348.63 33.91L348.63 44.98L351.43 44.98L351.43 50.23ZM336.83 46.06L336.83 46.06Q338.74 46.06 340.06 45.13Q341.38 44.20 341.38 42.43L341.38 42.43L341.38 39.40L337.51 39.40Q333.05 39.40 333.05 42.39L333.05 42.39L333.05 43.37Q333.05 44.69 334.08 45.37Q335.11 46.06 336.83 46.06ZM356.13 50.23L356.13 44.59L363.87 44.59L363.87 19.60L356.13 19.60L356.13 13.97L371.13 13.97L371.13 44.59L378.87 44.59L378.87 50.23L356.13 50.23Z" transform="translate(0, 0)"></path></g></svg></svg>
                </g>
            </svg>
        